<svg xmlns="http://www.w3.org/2000/svg" xmlns:xlink="http://www.w3.org/1999/xlink" viewBox="0 0 1494.63 862.42"><defs><clipPath id="a"><path d="M844.65,403.52c0,.09,0,.09.17.14a10.18,10.18,0,0,1-3.38,14.17c-29.53,18.27-42.57,5.07-46.69-1.47-7.39-11.48,6.58-19.11,12-21.39l4.47,8.23a5.84,5.84,0,0,0,.36-.47c-.11.26-.43.82.52,2.38.42.8,1.15,1.8,4.75,1.11s8.39-2.71,13.74-6A10.41,10.41,0,0,1,844.65,403.52Z" fill="none"/></clipPath><clipPath id="b"><path d="M842.44,391.8l.08.18a10.38,10.38,0,0,1-5.84,13.43c-32.25,12.79-42.78-2.5-45.73-9.61-5.24-12.55,23.84-19.55,33-20.85L813,385.8a1.58,1.58,0,0,0,.48-.41c-.2.29-4,.65-3.43,2.45.33.83.78,2,4.55,2s8.76-1.24,14.56-3.45A10,10,0,0,1,842.44,391.8Z" fill="none"/></clipPath><clipPath id="c"><path d="M837,383c5.82,8.87,4,24-5.24,30-9,5.76-14.44,4.27-17.51-.43-3.41-5.31-.4-11.79,1-18.58,1.39-7.56-1.41-14.84,5.28-19.13,12.66-8.19,22.13-7.67,37.38-3.75,5.53,1.45,16,17.85,12.77,25.48" fill="none"/></clipPath><radialGradient id="d" cx="1024.94" cy="733.88" r="364.07" gradientUnits="userSpaceOnUse"><stop offset="0" stop-color="#6f2415"/><stop offset="1" stop-color="#6f2415" stop-opacity="0"/></radialGradient><clipPath id="e"><path d="M932.66,349.86c10.24-9.43,21.62-14.21,33.82-14.21a52.41,52.41,0,0,1,16,2.64c12.47,4,22,12.64,28.66,23.64a12.63,12.63,0,0,0-4.25-.68c-8.91,0-13.26,7.87-13.26,19.75,0,10.12,6.32,14.33,6.32,23.79,0,15.58-21.91,61.84-21.91,61.84s-10.58-56.23-10.63-80.45c2.62.56,5.29,1.11,8,1.63a3.81,3.81,0,0,0,.75.07A4,4,0,0,0,977,380a264.83,264.83,0,0,1-34.13-8.62,4,4,0,1,0-2.54,7.58c2.14.72,4.38,1.41,6.66,2.09.07,2.94.48,16.16,2.43,33.26-.81,1.79-11.11,24.79-17.09,44.54,0,0-13.2-41.87-7.44-85.9,1.16.51,2.42,1.06,3.8,1.64a3.84,3.84,0,0,0,1.55.32,4,4,0,0,0,1.57-7.69c-4.73-2-8-3.48-10.14-4.55A78.33,78.33,0,0,1,932.66,349.86Z" fill="#f4bc2f"/></clipPath><clipPath id="f"><path d="M910.94,457.82c-9.4-20.22-10-49.09-1.44-71.84q1.25-3.33,2.66-6.49c-1.73,20.43-2.68,60.79,11.24,95.68A53,53,0,0,1,910.94,457.82Z" fill="#f4bc2f"/></clipPath><clipPath id="g"><path d="M938.3,484.06a45.1,45.1,0,0,1-6.33-2.82c3.43-13.45,11-40.4,19.27-53C954.1,447,958.85,468,966.7,484.67a47.56,47.56,0,0,1-13.41,2A44.52,44.52,0,0,1,938.3,484.06Z" fill="#f4bc2f"/></clipPath><clipPath id="h"><path d="M1019.32,427.12c-4,14.66-13.06,29.56-25,40.87a77.17,77.17,0,0,1-15.5,11.51c11-24.84,32-72.15,35.49-79.5a57.23,57.23,0,0,0,4.67-19.58A90,90,0,0,1,1019.32,427.12Z" fill="#f4bc2f"/></clipPath></defs><path d="M1143.22,657.57s-39.11,71.71-133.92,41.48-168.78-249.11-202-330.88" fill="none" stroke="#5a7cfd" stroke-miterlimit="10" stroke-width="10"/><path d="M1494.63,837.54H0V542.87c836.62-146.33,1494.63,0,1494.63,0Z" fill="#c1d5ea"/><path d="M1494.63,862.42H0V700.09c851.39-77.33,1494.63,70.67,1494.63,70.67Z" fill="#d7e7f9"/><polygon points="1337.06 310.63 1270.31 345.6 1307.17 266.34 1337.06 310.63" fill="#4167f2"/><polygon points="106.5 355.19 148.71 417.61 65.83 389.84 106.5 355.19" fill="#faad45"/><polygon points="145.9 16.03 171.04 75.87 112.8 54.43 145.9 16.03" fill="#33cc86"/><polygon points="1144.95 23.65 1097 67.41 1097.68 5.35 1144.95 23.65" fill="#27b772"/><path d="M967.58,165.35a130.26,130.26,0,0,0,3.91-20l-20.63-9.29c.1-2,.16-3.92.16-5.9a109,109,0,0,0-1.2-16.17l19.67-11.2a129.52,129.52,0,0,0-5.79-19.52l-22.58,1.37A109.43,109.43,0,0,0,929.91,65.6l12.21-19A131.43,131.43,0,0,0,927.91,32l-19.36,11.7A108.68,108.68,0,0,0,889.8,32l2-22.55A130.75,130.75,0,0,0,872.4,3.11L860.69,22.48a109.5,109.5,0,0,0-19-1.66c-1,0-2,0-3,.05L829.91,0a130.1,130.1,0,0,0-20.08,3.38L808.46,26a108.76,108.76,0,0,0-20.28,8.82L770.75,20.36a130.72,130.72,0,0,0-16.19,12.37l9.29,20.62A110,110,0,0,0,750,70.56l-22.14-4.67a130.28,130.28,0,0,0-8.62,18.45L737,98.3A108.74,108.74,0,0,0,732.78,120L711,126.15c0,1.34-.07,2.68-.07,4a133.29,133.29,0,0,0,1,16.32l22.25,4.08a108.61,108.61,0,0,0,6.29,21.19l-16.41,15.57a131,131,0,0,0,10.32,17.56l21.6-6.73A110.36,110.36,0,0,0,771.43,214l-7.3,21.42a131.17,131.17,0,0,0,17.28,10.78l16-16a108.69,108.69,0,0,0,21,6.85l3.49,22.35a131.13,131.13,0,0,0,19.74,1.49h.57L849,239.29a109.5,109.5,0,0,0,21.8-3.68l13.48,18.18a129.88,129.88,0,0,0,18.67-8.12l-4.07-22.26A110.8,110.8,0,0,0,916.4,210l20.38,9.83A132.05,132.05,0,0,0,949.56,204l-13.95-17.8a108.3,108.3,0,0,0,9.35-20ZM841.22,218a87.57,87.57,0,1,1,87.56-87.57A87.57,87.57,0,0,1,841.22,218Z" fill="#d7e7f9"/><path d="M841.22,53.69A76.76,76.76,0,1,0,918,130.44,76.83,76.83,0,0,0,841.22,53.69Zm-69,76.75a68.8,68.8,0,0,1,6-28.09l32.91,90.2A69,69,0,0,1,772.21,130.44Zm69,69a69.37,69.37,0,0,1-19.5-2.81l20.71-60.17,21.22,58.12a6.08,6.08,0,0,0,.49,1A69,69,0,0,1,841.22,199.46Zm9.51-101.38c4.16-.22,7.9-.66,7.9-.66,3.72-.43,3.28-5.9-.44-5.68,0,0-11.18.88-18.4.88-6.77,0-18.17-.88-18.17-.88-3.72-.22-4.16,5.47-.44,5.68,0,0,3.52.44,7.24.66l10.75,29.46-15.1,45.3L798.94,98.09c4.16-.22,7.9-.66,7.9-.66,3.72-.44,3.28-5.91-.44-5.68,0,0-11.18.87-18.4.87-1.3,0-2.82,0-4.44-.08a69,69,0,0,1,104.27-13c-.3,0-.59-.05-.9-.05-6.78,0-11.59,5.91-11.59,12.25,0,5.69,3.28,10.5,6.78,16.18,2.63,4.6,5.69,10.51,5.69,19,0,5.91-2.27,12.76-5.25,22.31l-6.89,23Zm51-.75a69,69,0,0,1-25.87,92.76L897,129.15c3.94-9.85,5.24-17.72,5.24-24.72A54.19,54.19,0,0,0,901.78,97.33Z" fill="#d7e7f9"/><path d="M720.68,616.71l5.35-14c15.1-39.53,58.39-71.88,98.46-73.72l73.9-4.28a9.12,9.12,0,0,0,7.79-6,6.83,6.83,0,0,0-.78-5.94,6.6,6.6,0,0,0-5-2.74L829,505.83a51.37,51.37,0,0,1-40.85-20.15c-9.45-13.26-11.53-31.22-5.94-50.72l13.13-45.3a5.33,5.33,0,0,1,3.39-3.51h0l-18.61-8.86a11.75,11.75,0,0,1-.77,4.28l-19.2,50.18c-15.16,39.48-58.39,71.88-98.34,73.73L324.9,509.7a8.84,8.84,0,0,0-7.73,5.94,6.67,6.67,0,0,0,.71,6,6.54,6.54,0,0,0,5.23,2.79l333.6,4.28a51.37,51.37,0,0,1,40.84,20.16c9.46,13.2,11.54,31.21,6,50.71l-4.7,16.35a8.21,8.21,0,0,1-7.61,6h33.3a3.92,3.92,0,0,1-4-3.86A3.84,3.84,0,0,1,720.68,616.71Z" fill="#fff"/><path d="M698.74,616l4.7-16.35c5.65-19.5,3.57-37.51-6-50.71a51.37,51.37,0,0,0-40.84-20.16l-333.6-4.28a6.54,6.54,0,0,1-5.23-2.79,6.68,6.68,0,0,1-.71-6,8.83,8.83,0,0,1,7.73-5.94l336.68-4.28c40-1.85,83.24-34.25,98.34-73.73l19.2-50.18a11.76,11.76,0,0,0,.78-4.28,10.52,10.52,0,0,0,0-2.38C753.53,256.74,636.35,182.22,518.11,208.53A219.31,219.31,0,0,0,358,352.26,98.75,98.75,0,0,0,203.43,455.65,140.25,140.25,0,0,0,67.28,595.85a143.24,143.24,0,0,0,1.49,20.27,6.62,6.62,0,0,0,6.42,5.65H691A8.21,8.21,0,0,0,698.74,616Z" fill="#f28021"/><path d="M809.86,385.2h-9.21a5,5,0,0,0-1.43.36,5.29,5.29,0,0,0-3.39,3.51l-13.14,45.3c-5.59,19.5-3.51,37.46,5.95,50.71a51.37,51.37,0,0,0,40.84,20.16l71.35,4.28a6.61,6.61,0,0,1,5,2.73,6.85,6.85,0,0,1,.77,6,9.07,9.07,0,0,1-7.79,5.94L825,528.42c-40.07,1.85-83.23,34.19-98.45,73.73l-5.83,14.56a3.93,3.93,0,0,0,2.23,5.09,3.75,3.75,0,0,0,1.28.26H978.65a6.71,6.71,0,0,0,6.54-4.87A182.47,182.47,0,0,0,809.62,385.32Z" fill="#fbae42"/><path d="M261.7,282.2l1.9-4.94c5.33-14,20.63-25.4,34.79-26l26.11-1.51a3.2,3.2,0,0,0,2.75-2.1,2.4,2.4,0,0,0-.27-2.1,2.32,2.32,0,0,0-1.79-1L300,243a18.18,18.18,0,0,1-14.43-7.12c-3.34-4.69-4.08-11-2.1-17.92l4.64-16a1.86,1.86,0,0,1,1.2-1.24h0l-6.58-3.13a4.11,4.11,0,0,1-.27,1.51l-6.79,17.73c-5.35,13.95-20.63,25.4-34.74,26l-119.06,1.49a3.13,3.13,0,0,0-2.73,2.1,2.36,2.36,0,0,0,.25,2.11,2.3,2.3,0,0,0,1.85,1l117.88,1.52a18.11,18.11,0,0,1,14.43,7.12c3.34,4.66,4.08,11,2.1,17.92L254,281.91a2.9,2.9,0,0,1-2.69,2.1h11.77a1.39,1.39,0,0,1-1.41-1.37A1.61,1.61,0,0,1,261.7,282.2Z" fill="#fff"/><path d="M254,282l1.66-5.78c2-6.89,1.26-13.26-2.1-17.92a18.14,18.14,0,0,0-14.43-7.12l-117.89-1.51a2.29,2.29,0,0,1-2.1-3.09,3.13,3.13,0,0,1,2.74-2.1l119-1.52c14.12-.65,29.41-12.1,34.75-26l6.79-17.73a4.33,4.33,0,0,0,.27-1.51,3.93,3.93,0,0,0,0-.84,77.5,77.5,0,0,0-149.06-8,34.9,34.9,0,0,0-54.63,36.54,49.56,49.56,0,0,0-48.11,49.54,50.52,50.52,0,0,0,.53,7.16,2.33,2.33,0,0,0,2.27,2H251.2A2.91,2.91,0,0,0,254,282Z" fill="#d7e7f9"/><path d="M293.22,200.39H290a1.76,1.76,0,0,0-.5.13,1.84,1.84,0,0,0-1.2,1.24l-4.64,16c-2,6.89-1.24,13.23,2.1,17.92a18.17,18.17,0,0,0,14.43,7.12l25.21,1.51a2.34,2.34,0,0,1,1.79,1,2.4,2.4,0,0,1,.27,2.1,3.2,3.2,0,0,1-2.75,2.1L298.56,251c-14.17.65-29.42,12.08-34.8,26.05l-2.06,5.15a1.4,1.4,0,0,0,.79,1.8,1.44,1.44,0,0,0,.45.09h89.92a2.37,2.37,0,0,0,2.31-1.72,64.48,64.48,0,0,0-62-81.94Z" fill="#d7e7f9"/><path d="M535.28,115.86l1.14-3c3.23-8.45,12.48-15.36,21.05-15.76l15.8-.91a2,2,0,0,0,1.67-1.27,1.46,1.46,0,0,0-.17-1.27,1.41,1.41,0,0,0-1.08-.59l-15.25-.91a11,11,0,0,1-8.74-4.31c-2-2.84-2.46-6.68-1.27-10.85l2.81-9.68a1.14,1.14,0,0,1,.73-.75h0l-4-1.9a2.59,2.59,0,0,1-.17.92l-4.1,10.73c-3.24,8.44-12.49,15.36-21,15.76l-72,.9A1.89,1.89,0,0,0,449,94.25a1.38,1.38,0,0,0,1.27,1.87L521.6,97a11,11,0,0,1,8.73,4.31c2,2.82,2.47,6.67,1.27,10.84l-1,3.49A1.75,1.75,0,0,1,529,117h7.12a.83.83,0,0,1-.81-1.09Z" fill="#fff"/><path d="M530.59,115.71l1-3.5c1.21-4.17.76-8-1.27-10.84a11,11,0,0,0-8.73-4.31l-71.32-.91a1.38,1.38,0,0,1-1.12-.6,1.4,1.4,0,0,1-.15-1.27A1.86,1.86,0,0,1,450.65,93l72-.92c8.54-.39,17.79-7.32,21-15.76l4.11-10.73a2.36,2.36,0,0,0,.16-.91,2.17,2.17,0,0,0,0-.51,46.89,46.89,0,0,0-90.18-4.86,21.12,21.12,0,0,0-33.05,22.11,30,30,0,0,0-29.11,30,31.31,31.31,0,0,0,.32,4.33,1.41,1.41,0,0,0,1.37,1.21H528.92A1.75,1.75,0,0,0,530.59,115.71Z" fill="#d7e7f9"/><path d="M554.34,66.36h-2a1.11,1.11,0,0,0-.3.08,1.16,1.16,0,0,0-.73.75l-2.81,9.69c-1.19,4.17-.75,8,1.28,10.84A11,11,0,0,0,558.54,92l15.25.91a1.41,1.41,0,0,1,1.08.59A1.46,1.46,0,0,1,575,94.8a1.94,1.94,0,0,1-1.67,1.27l-15.8.92c-8.57.39-17.79,7.3-21.05,15.76l-1.24,3.11a.84.84,0,0,0,.47,1.09,1.27,1.27,0,0,0,.28.06h54.4a1.45,1.45,0,0,0,1.4-1.05,39,39,0,0,0-37.54-49.57Z" fill="#d7e7f9"/><path d="M1410.17,137.9l1.67-4.35c4.7-12.3,18.17-22.37,30.64-22.94l23-1.33a2.85,2.85,0,0,0,2.42-1.85,2.14,2.14,0,0,0-.24-1.86,2.08,2.08,0,0,0-1.57-.85l-22.21-1.33a16,16,0,0,1-12.71-6.27c-2.94-4.13-3.59-9.72-1.85-15.79l4.09-14.1a1.65,1.65,0,0,1,1.06-1.09h0l-5.8-2.75a3.6,3.6,0,0,1-.24,1.33l-6,15.62c-4.72,12.28-18.17,22.37-30.61,22.94L1287,104.59a2.77,2.77,0,0,0-2.41,1.85,2.06,2.06,0,0,0,.23,1.85,2,2,0,0,0,1.63.87l103.82,1.34a16,16,0,0,1,12.71,6.27c2.94,4.11,3.59,9.71,1.85,15.78l-1.46,5.09a2.55,2.55,0,0,1-2.37,1.85h10.36a1.22,1.22,0,0,1-1.24-1.2A1.32,1.32,0,0,1,1410.17,137.9Z" fill="#fff"/><path d="M1403.34,137.68l1.46-5.09c1.76-6.07,1.11-11.68-1.85-15.78a16,16,0,0,0-12.71-6.28l-103.82-1.33a2,2,0,0,1-1.63-.87,2.06,2.06,0,0,1-.22-1.85,2.75,2.75,0,0,1,2.4-1.85l104.79-1.33c12.43-.57,25.9-10.66,30.6-23l6-15.61a3.83,3.83,0,0,0,.24-1.34,3.05,3.05,0,0,0,0-.74A68.26,68.26,0,0,0,1297.3,55.6a30.73,30.73,0,0,0-48.11,32.17,43.66,43.66,0,0,0-42.38,43.64,44.44,44.44,0,0,0,.47,6.31,2,2,0,0,0,2,1.75h191.65A2.54,2.54,0,0,0,1403.34,137.68Z" fill="#d7e7f9"/><path d="M1437.93,65.85h-2.87a1.48,1.48,0,0,0-.45.11,1.66,1.66,0,0,0-1,1.09l-4.09,14.1c-1.74,6.07-1.09,11.66,1.85,15.78a16,16,0,0,0,12.71,6.28l22.21,1.33a2.06,2.06,0,0,1,1.57.85,2.13,2.13,0,0,1,.24,1.85,2.82,2.82,0,0,1-2.42,1.85l-23,1.33c-12.48.58-25.91,10.64-30.65,23l-1.81,4.53a1.21,1.21,0,0,0,.69,1.58,1.44,1.44,0,0,0,.4.09h79.2a2.08,2.08,0,0,0,2-1.52,56.82,56.82,0,0,0-54.64-72.17Z" fill="#d7e7f9"/><path d="M1356.48,146.49" fill="none" stroke="#ef3fb9" stroke-miterlimit="10"/><path d="M847.18,372.67c7-.54,11.94-1.11,16.4-4,11-7.11,69.21-48.55,64.22-58.08,70.12-47.1,49.85,33.36,49.85,33.36-21.31,80-95.71,72.52-95.71,72.52,1.76,14.37-42.79,38.43-71.09-5.39C789,377.42,847.18,372.67,847.18,372.67Z" fill="#4167f2"/><path d="M819.21,409.92s1.65-5.29-.78-8.95-8-8.34-11.72-5.87,1.9,15.5,1.9,15.5Z" fill="#415aff" opacity="0.5" style="isolation:isolate"/><path d="M880.3,411.88c.54.54,1.17,2.11,1.64,4.62,0,0,74.37,7.42,95.71-72.52a43.91,43.91,0,0,0-10.1-10.71C950.85,411.89,880.3,411.88,880.3,411.88Z" fill="#4770f4"/><g opacity="0.75"><path d="M880.24,357a39.14,39.14,0,0,0-3.44,19.22c.78,11.17-5.74,19.53-6.08,20.31,2.49-10.48-7.24-24-12.64-25.43a17.1,17.1,0,0,0,5.5-2.41C871.14,363.63,880.24,357,880.24,357Z" fill="#3354f2"/></g><path d="M837,382.87c7.11,4,8.06,9.91,8.06,9.91,5.48,2.66,5.21,9.55,5.21,9.55,6.43,2.06,8.43,10.31,8.43,10.31,6.78,3.21,8.56,12,8.56,12a20.11,20.11,0,0,0-1.71-1.58,10.6,10.6,0,0,0-6.62-1.76,9.71,9.71,0,0,0-13.34-8.56,10.27,10.27,0,0,0-.79-9.27c0-.09,0-.09-.17-.15a10.92,10.92,0,0,0-4.7-3.93A24.34,24.34,0,0,0,837,382.87Z" fill="#3354f2" opacity="0.5" style="isolation:isolate"/><path d="M840.05,403.31a22.2,22.2,0,0,0,3.76,3.23c1.3.56,3.83,2.57,8,2.64,1.23.37,6.54.19,13.39-3.95-3.58,2.61-2.12,1.7-4.6,3A19.29,19.29,0,0,1,838,404.89Z" fill="#3354f2"/><path d="M809.77,426.72a20.72,20.72,0,0,0,7.13,11.91c5.24,4.47,19.43,12.48,39.48-10.08,6.93-7.73-1.29-19.41-10.86-15.58a10.18,10.18,0,0,1-4.18,4.9C827.47,426.54,817.11,428.1,809.77,426.72Z" fill="#4167f2"/><path d="M809.77,426.72a20.72,20.72,0,0,0,7.13,11.91c5.24,4.47,19.43,12.48,39.48-10.08,6.93-7.73-1.29-19.41-10.86-15.58a10.18,10.18,0,0,1-4.18,4.9C827.47,426.54,817.11,428.1,809.77,426.72Z" fill="none"/><path d="M845.52,413a9.6,9.6,0,0,1,11.16,2.86c-3.6-3.62-10.06,1.76-18.75,5.88-7.25,3.44-17,5.31-20.47,5.39l0-.1c6.37-.5,14.27-3.12,23.92-9.13A10.18,10.18,0,0,0,845.52,413Z" fill="#415aff" opacity="0.75" style="isolation:isolate"/><path d="M809.77,426.72a20.72,20.72,0,0,0,7.13,11.91c5.24,4.47,19.43,12.48,39.48-10.08,6.93-7.73-1.29-19.41-10.86-15.58a10.18,10.18,0,0,1-4.18,4.9C827.47,426.54,817.11,428.1,809.77,426.72Z" fill="none"/><path d="M826,436.07c5.7,0,11.27-.63,13.58,3,.66,1.13-.58,2.6-2.92,3.75h0a20.31,20.31,0,0,1-19.76-4.16,21.36,21.36,0,0,1-2.93-3C815,435,820.62,436.06,826,436.07Z" fill="#4770f4"/><path d="M856.48,428.51c-10.05,11.23-18.61,14.87-25.22,15a19.79,19.79,0,0,0,4.9,4.72c3.82,2.56,17.17,9.28,31.83-11.44a9.81,9.81,0,0,0-9-15.37A10.6,10.6,0,0,1,856.48,428.51Z" fill="#4167f2"/><path d="M856.48,428.51c-10.05,11.23-18.61,14.87-25.22,15a19.79,19.79,0,0,0,4.9,4.72c3.82,2.56,17.17,9.28,31.83-11.44a9.81,9.81,0,0,0-9-15.37A10.6,10.6,0,0,1,856.48,428.51Z" fill="none"/><path d="M856.48,428.51c-10.05,11.23-18.61,14.87-25.22,15a19.79,19.79,0,0,0,4.9,4.72c3.82,2.56,17.17,9.28,31.83-11.44a9.81,9.81,0,0,0-9-15.37A10.6,10.6,0,0,1,856.48,428.51Z" fill="none"/><path d="M844.65,403.52c0,.09,0,.09.17.14a10.18,10.18,0,0,1-3.38,14.17c-29.53,18.27-42.57,5.07-46.69-1.47-7.39-11.48,6.58-19.11,12-21.39l4.47,8.23a5.84,5.84,0,0,0,.36-.47c-.11.26-.43.82.52,2.38.42.8,1.15,1.8,4.75,1.11s8.39-2.71,13.74-6A10.41,10.41,0,0,1,844.65,403.52Z" fill="#4167f2"/><path d="M844.65,403.52c0,.09,0,.09.17.14a10.18,10.18,0,0,1-3.38,14.17c-29.53,18.27-42.57,5.07-46.69-1.47-7.39-11.48,6.58-19.11,12-21.39l4.47,8.23a5.84,5.84,0,0,0,.36-.47c-.11.26-.43.82.52,2.38.42.8,1.15,1.8,4.75,1.11s8.39-2.71,13.74-6A10.41,10.41,0,0,1,844.65,403.52Z" fill="none"/><path d="M840,399.58a9.78,9.78,0,0,1,4.7,3.94c-.3-.21-3.82-2.57-5.38,1.61-1.66,4.75-6.82,7.46-7.43,7.82C836.26,410,839,405,840,399.58Z" fill="#415aff" opacity="0.75" style="isolation:isolate"/><g clip-path="url(#a)"><path d="M795.38,417.4c-6.85-8.25,3.14-16.12,17.61-13.07l3.14-4.27-11.25-10.9s-23.24,21.35-23,21.24,11,8.32,11,8.32Z" fill="#415aff" opacity="0.5" style="isolation:isolate"/></g><path d="M844.65,403.52c0,.09,0,.09.17.14a10.18,10.18,0,0,1-3.38,14.17c-29.53,18.27-42.57,5.07-46.69-1.47-7.39-11.48,6.58-19.11,12-21.39l4.47,8.23a5.84,5.84,0,0,0,.36-.47c-.11.26-.43.82.52,2.38.42.8,1.15,1.8,4.75,1.11s8.39-2.71,13.74-6A10.41,10.41,0,0,1,844.65,403.52Z" fill="none"/><path d="M809.63,419.35c6,.09,12-.48,14.44,3.27.71,1.23-.63,2.73-3.1,3.83-13,2.5-20.48-3-24.4-7.7C796.83,417.79,803.35,419.28,809.63,419.35Z" fill="#4770f4"/><path d="M842.44,391.8l.08.18a10.38,10.38,0,0,1-5.84,13.43c-32.25,12.79-42.78-2.5-45.73-9.61-3.73-19.29,23.84-19.55,33-20.85L813,385.8a1.58,1.58,0,0,0,.48-.41c-.2.29-4,.65-3.43,2.45.33.83.78,2,4.55,2s8.76-1.24,14.56-3.45A10,10,0,0,1,842.44,391.8Z" fill="#4167f2"/><g clip-path="url(#b)"><path d="M838.55,370.2c4.12,9.77-.29,24.35-10.43,28.62,0,0,6.17-1.82,8.75-6.41,2.36-4.07-2.67,14.86-2.67,14.86L850.52,401l-4.62-14Z" fill="#415aff" opacity="0.5" style="isolation:isolate"/></g><path d="M842.44,391.8l.08.18a10.38,10.38,0,0,1-5.84,13.43c-32.25,12.79-42.78-2.5-45.73-9.61-3.56-19.68,23.84-19.55,33-20.85L816,383.4s-.67,2.64-.37,2.3c-.21.3-6.35.28-5.69,1.95.34.84.78,2,4.55,2s8.77-1.24,14.56-3.45A10.33,10.33,0,0,1,842.44,391.8Z" fill="none"/><path d="M821.07,375.25l-3,5.5-1.86,3.43-5,2.77a3.13,3.13,0,0,0-.84-.21c-13-3.82-19.33,1.49-18.83,10l-.18.07-.41-1C787.57,378.2,810,376.44,821.07,375.25Z" fill="#415aff" opacity="0.5" style="isolation:isolate"/><path d="M810.11,387.71c.34.83.78,2,4.55,2s8.77-1.24,14.56-3.45a10.24,10.24,0,0,1,13.26,5.68l.07.19a10.35,10.35,0,0,1-5.83,13.42c-32.26,12.79-42.78-2.49-45.73-9.61C787.66,376,813.7,377,824,375.05l-8.29,12.14" fill="none"/><path d="M805.17,401.21c6,1.17,11.85,1.61,13.61,5.76.56,1.39-1.26,2.76-4.14,3.37-12.61,0-19-6.29-22.11-11.4h0l-.08-.19C791.67,396.8,798.34,399.74,805.17,401.21Z" fill="#4770f4"/><path d="M837,383c5.82,8.87,4,24-5.24,30-9,5.76-14.44,4.27-17.51-.43-3.41-5.31-.4-11.79,1-18.58,1.39-7.56-1.41-14.84,5.28-19.13,12.66-8.19,22.13-7.67,37.38-3.75,5.53,1.45,16,17.85,12.77,25.48" fill="#4167f2"/><g clip-path="url(#c)"><path d="M811.47,409.68c-1-1.53,4.47-.39,9.58-.82,4.51-.3,8.8-1.15,11.53,1.64S821.32,424.9,811.47,409.68Z" fill="#4167f2"/></g><path d="M868.57,426.69a9.89,9.89,0,0,0-9.53-5.23,10.6,10.6,0,0,1-2.56,7.05c-5.2,5.85-10.05,9.62-14.32,11.87l-.06.13c3.33-1.66,9.92-6.45,15.17-11.35C861.45,425.34,866.32,423.5,868.57,426.69Z" fill="#415aff" opacity="0.75" style="isolation:isolate"/><path d="M834.3,446.86a13,13,0,0,0,1.86,1.41c2.93,2,11.32,6.24,21.56-.76a1.34,1.34,0,0,0-.09-1.58c-2.6-2.73-7.56-1.39-12.58-.47C840.41,446.24,835.43,446.19,834.3,446.86Z" fill="#4770f4"/><path d="M813,385.8l.3-.34.18-.07A5.12,5.12,0,0,1,813,385.8Z" fill="#4167f2"/><path d="M900.61,702.55c63.33.33,162.53,28.52,186.93,76.43,0,0,11.44,19.38,19.92,19.89s25.34-56,64.41-60.49,73.77-48.68,20-69.5c-80.23-31-119.21,33.5-171.28,33.5s-45.29-26.5-45.29-26.5Z" opacity="0.1" fill="url(#d)"/><path d="M962.46,261c-43.7,21.51-99,117.29-99,199.61a37.52,37.52,0,0,0,.21,4C869.6,520.29,942.2,571,1035.79,581.67c96,10.92,180-24.27,195.24-79.71h0a186.41,186.41,0,0,0,5.39-44.6c0-27.69-10.56-59.13-21.75-92.42-5.16-15.36-13.5-45.61-26.86-54.53Z" fill="#33cc86"/><path d="M1024.34,355c-2.79-13-15.36-22.47-25.63-29.76a13.61,13.61,0,0,0,8.42-5.58c4.53-6.67,2.09-16.24-5.46-21.36a17.24,17.24,0,0,0-1.88-1.12c3.47,5.48,3.81,12.25.3,17.42a14.65,14.65,0,0,1-8.14,5.79c-4-2.95-6.81-5.51-7.3-7.81,0,0-11.47,18-4.11,52.38s31.68,50.51,50.21,46.54C1020.85,395,1030.47,383.63,1024.34,355Z" fill="#27b772" opacity="0.35"/><path d="M1027.91,273.28,962.46,261c-43.7,21.51-99,117.29-99,199.61a37.52,37.52,0,0,0,.21,4c4.3,40.74,44.24,78.8,102,100.5-8-11.56-25.37-45.83-25.37-124.67,0-76.5,70.65-144.46,70.65-144.46Z" fill="#7add99" opacity="0.35"/><path d="M985,330.68a60,60,0,0,0-18.49-3c-30.1,0-53,25-64.48,55.52-13.67,36.46-7.4,93.81,33.61,108.42a52.3,52.3,0,0,0,17.68,3.09c34.4,0,65.22-33.89,73.75-65.47C1037,392.28,1023.72,343.18,985,330.68Zm-52.31,19.18c10.24-9.43,21.62-14.21,33.82-14.21a52.41,52.41,0,0,1,16,2.64c12.47,4,22,12.64,28.66,23.64a12.63,12.63,0,0,0-4.25-.68c-8.91,0-13.26,7.87-13.26,19.75,0,10.12,6.32,14.33,6.32,23.79,0,15.58-21.91,61.84-21.91,61.84s-10.58-56.23-10.63-80.45c2.62.56,5.29,1.11,8,1.63a3.81,3.81,0,0,0,.75.07A4,4,0,0,0,977,380a264.83,264.83,0,0,1-34.13-8.62,4,4,0,1,0-2.54,7.58c2.14.72,4.38,1.41,6.66,2.09.07,2.94.48,16.16,2.43,33.26-.81,1.79-11.11,24.79-17.09,44.54,0,0-13.2-41.87-7.44-85.9,1.16.51,2.42,1.06,3.8,1.64a3.84,3.84,0,0,0,1.55.32,4,4,0,0,0,1.57-7.69c-4.73-2-8-3.48-10.14-4.55A78.33,78.33,0,0,1,932.66,349.86Zm-21.72,108c-9.4-20.22-10-49.09-1.44-71.84q1.25-3.33,2.66-6.49c-1.73,20.43-2.68,60.79,11.24,95.68A53,53,0,0,1,910.94,457.82Zm27.36,26.24a45.1,45.1,0,0,1-6.33-2.82c3.43-13.45,11-40.4,19.27-53C954.1,447,958.85,468,966.7,484.67a47.56,47.56,0,0,1-13.41,2A44.52,44.52,0,0,1,938.3,484.06Zm81-56.94c-4,14.66-13.06,29.56-25,40.87a77.17,77.17,0,0,1-15.5,11.51c11-24.84,32-72.15,35.49-79.5a57.23,57.23,0,0,0,4.67-19.58A90,90,0,0,1,1019.32,427.12Z" fill="#f9e17a"/><path d="M932.66,349.86c10.24-9.43,21.62-14.21,33.82-14.21a52.41,52.41,0,0,1,16,2.64c12.47,4,22,12.64,28.66,23.64a12.63,12.63,0,0,0-4.25-.68c-8.91,0-13.26,7.87-13.26,19.75,0,10.12,6.32,14.33,6.32,23.79,0,15.58-21.91,61.84-21.91,61.84s-10.58-56.23-10.63-80.45c2.62.56,5.29,1.11,8,1.63a3.81,3.81,0,0,0,.75.07A4,4,0,0,0,977,380a264.83,264.83,0,0,1-34.13-8.62,4,4,0,1,0-2.54,7.58c2.14.72,4.38,1.41,6.66,2.09.07,2.94.48,16.16,2.43,33.26-.81,1.79-11.11,24.79-17.09,44.54,0,0-13.2-41.87-7.44-85.9,1.16.51,2.42,1.06,3.8,1.64a3.84,3.84,0,0,0,1.55.32,4,4,0,0,0,1.57-7.69c-4.73-2-8-3.48-10.14-4.55A78.33,78.33,0,0,1,932.66,349.86Z" fill="#f4bc2f"/><g clip-path="url(#e)"><path d="M935.66,351.86c10.24-9.43,21.62-14.21,33.82-14.21a52.41,52.41,0,0,1,16,2.64c12.47,4,22,12.64,28.66,23.64a12.63,12.63,0,0,0-4.25-.68c-8.91,0-13.26,7.87-13.26,19.75,0,10.12,6.32,14.33,6.32,23.79,0,15.58-21.91,61.84-21.91,61.84s-10.58-56.23-10.63-80.45c2.62.56,5.29,1.11,8,1.63a3.81,3.81,0,0,0,.75.07A4,4,0,0,0,980,382a264.83,264.83,0,0,1-34.13-8.62,4,4,0,1,0-2.54,7.58c2.14.72,4.38,1.41,6.66,2.09.07,2.94.48,16.16,2.43,33.26-.81,1.79-11.11,24.79-17.09,44.54,0,0-13.2-41.87-7.44-85.9,1.16.51,2.42,1.06,3.8,1.64a3.84,3.84,0,0,0,1.55.32,4,4,0,0,0,1.57-7.69c-4.73-2-8-3.48-10.14-4.55A78.33,78.33,0,0,1,935.66,351.86Z" fill="#ffce43"/></g><path d="M910.94,457.82c-9.4-20.22-10-49.09-1.44-71.84q1.25-3.33,2.66-6.49c-1.73,20.43-2.68,60.79,11.24,95.68A53,53,0,0,1,910.94,457.82Z" fill="#f4bc2f"/><g clip-path="url(#f)"><path d="M913.94,459.82c-9.4-20.22-10-49.09-1.44-71.84q1.25-3.33,2.66-6.49c-1.73,20.43-2.68,60.79,11.24,95.68A53,53,0,0,1,913.94,459.82Z" fill="#ffce43"/></g><path d="M938.3,484.06a45.1,45.1,0,0,1-6.33-2.82c3.43-13.45,11-40.4,19.27-53C954.1,447,958.85,468,966.7,484.67a47.56,47.56,0,0,1-13.41,2A44.52,44.52,0,0,1,938.3,484.06Z" fill="#f4bc2f"/><g clip-path="url(#g)"><path d="M941.3,486.06a45.1,45.1,0,0,1-6.33-2.82c3.43-13.45,11-40.4,19.27-53C957.1,449,961.85,470,969.7,486.67a47.56,47.56,0,0,1-13.41,2A44.52,44.52,0,0,1,941.3,486.06Z" fill="#ffce43"/></g><path d="M1019.32,427.12c-4,14.66-13.06,29.56-25,40.87a77.17,77.17,0,0,1-15.5,11.51c11-24.84,32-72.15,35.49-79.5a57.23,57.23,0,0,0,4.67-19.58A90,90,0,0,1,1019.32,427.12Z" fill="#f4bc2f"/><g clip-path="url(#h)"><path d="M1022.32,429.12c-4,14.66-13.06,29.56-25,40.87a77.17,77.17,0,0,1-15.5,11.51c11-24.84,32-72.15,35.49-79.5a57.23,57.23,0,0,0,4.67-19.58A90,90,0,0,1,1022.32,429.12Z" fill="#ffce43"/></g><path d="M1030.75,411.47l-.78.15c-18.42,3.37-42.18-12.83-49.43-46.69-3.25-15.18-2.83-27.17-1.33-35.83,1.9.42,3.81.95,5.75,1.57,21.75,7,35.48,25.56,41.58,47-.2,13.16-2.4,21.88,3.51,32.58,0,0,0,0,0,0C1030.28,410.67,1030.51,411.07,1030.75,411.47Z" fill="#d19e20" opacity="0.25"/><path d="M958.4,579.19c-17.12,0-21.71,9.12-21.71,16.44,0,14,26.59,66.75,26.59,80.58s12-.33,12-.33,2.41-22.31,2.41-34.28c0-22.34-12.21-34.84-12.21-34.84" fill="#597cff"/><path d="M980,641.63c-13.75-15.58-39.08-15-39.08-15,12.14,17.51,14.71,34.07,17.74,44.42h-.74c-14.12,0-57.33,26.17-57.33,31.51,0,5,65.62-3.77,73.82-22.74.47-1.09,1-2.18,1.45-3.26C979.39,669,978.41,654.74,980,641.63Z" fill="#415aff"/><path d="M958.4,579.19c-17.12,0-21.71,9.12-21.71,16.44,0,14,26.59,66.75,26.59,80.58s12-.33,12-.33,2.41-22.31,2.41-34.28c0-22.34-12.21-34.84-12.21-34.84" fill="#415aff" opacity="0.5"/><path d="M1214,532.71a179.72,179.72,0,0,1-18.65,31.58c-35,27.52-94.28,41.82-159.21,34.44-73.58-8.37-133.8-42.22-157.17-83.53a175.93,175.93,0,0,1-5.71-21c23.4,43.2,85.94,78.78,162.55,87.49S1181.56,569.68,1214,532.71Z" fill="#415aff"/><path d="M1195.33,564.29a180.52,180.52,0,0,1-316.43-49.1c23.36,41.33,83.6,75.2,157.19,83.57C1101,606.14,1160.29,591.84,1195.33,564.29Z" fill="#597cff"/><path d="M1088.44,394.66c0-38.24-28.81-62.25-48.9-74.35-11.45-6.32-19-9.55-19-9.55L1035.23,271l9.09,7.95,143.48,31.48c13.36,8.91,21.71,39.16,26.87,54.53,11.18,33.29,21.75,64.73,21.75,92.42a187,187,0,0,1-1.38,22.7,184.13,184.13,0,0,1-4,21.9c-15.26,55.44-99.2,90.63-195.24,79.71q-7.71-.87-15.23-2.12c74.87-4,94.38-49.67,94.38-104C1114.94,423.56,1088.44,394.66,1088.44,394.66Z" fill="#27b772" opacity="0.35"/><path d="M1235,480.06a187,187,0,0,0,1.38-22.7c0-16.91-3.94-35.22-9.56-54.5L1169,401.05v4.22c8.22,5.86,51.21,57.46,48.47,66.78h0a90.37,90.37,0,0,0-17.34-5.51c-65.33-13.58-49.54,31-49.54,31,32.61,19.3,49,47.05,33.21,59.31C1208,542.86,1225,524,1231,502c.94-3.82,1.75-7.7,2.44-11.61h0c.14-.81.27-1.63.4-2.45.08-.48.17-1,.24-1.45C1234.47,484.34,1234.78,482.21,1235,480.06Z" fill="#27b772"/><path d="M1150.56,497.57c6,3.55,11.71-7.36,16.51-3.39l6.87,11.64s30.17,6.06,43-12.44c8.32-12-4.14-21.18-13.93-26.16-1-.24-1.93-.46-2.91-.67C1134.77,453,1150.56,497.57,1150.56,497.57Z" fill="#158c51" opacity="0.5"/><path d="M1188.71,299" fill="none" stroke="#ef3fb9" stroke-miterlimit="10"/><path d="M1246.14,833.86a0,0,0,0,1,0,0" fill="none" stroke="#ef3fb9" stroke-miterlimit="10"/><path d="M1013.25,307.26l-.08-.05" fill="none" stroke="#ef3fb9" stroke-miterlimit="10"/><path d="M1195.33,564.29a180.73,180.73,0,0,1-167.42,72.24c23.53-7.9,32.95-16.82,35.32-35.92C1117.3,601.83,1165.24,588,1195.33,564.29Z" fill="#415aff" opacity="0.5"/><path d="M1134.44,610.63c0,25.67-19.66,48.31-25,70.26-5.55,22.94-2.62,41.5-15.86,41.5-13,0-11.93-20.39-18.42-41.26s-20.5-42.22-20.5-50.4" fill="#597cff"/><path d="M1134.44,610.63c0,25.67-19.66,48.31-25,70.26-5.55,22.94-2.62,41.5-15.86,41.5-13,0-11.93-20.39-18.42-41.26s-20.5-42.22-20.5-50.4" fill="#415aff" opacity="0.5"/><path d="M1104.08,716.5c7.27-11.67,5.25-38.07,21.61-54.62,0,0-33-8.25-64,2,14.89,21.29,14.58,43.72,21.73,53.48-4,8.72-3.47,24.66-1.2,41.84,3.27,24.78,16.73,40.8,25.24,39.67s13-22.77,10.11-44.34C1115.69,740.24,1111,724.78,1104.08,716.5Z" fill="#415aff"/><path d="M1089.69,630.73c-2.23,13.12-6.66,23.53-14.12,22.26s-11.7-12.92-9.47-26,10.07-22.72,17.53-21.46S1091.91,617.62,1089.69,630.73Z" fill="#597cff"/><path d="M1099.14,747.06c1.28,14.45,2.5,25.69-2.91,26.17s-10.83-10.85-12.12-25.3,2.07-26.57,7.48-27S1097.86,732.6,1099.14,747.06Z" fill="#597cff" opacity="0.5"/><path d="M985.94,313.05c-27.87,2.71-47.71,19.54-44.76,49.89,1.14,11.78-1.24,28.09-6.88,28.64,14.9-1.45,25.47-15.8,35.9-37.15C976,342.5,973.73,330,985.94,313.05Z" fill="#d19e20" opacity="0.25"/><path d="M984.84,313.17l-.58.06c.25-.45.39-.68.39-.68A4,4,0,0,0,984.84,313.17Z" fill="#ffce43"/><path d="M985.94,313.05l-.68,1a4.46,4.46,0,0,1-.42-.85C985.2,313.12,985.57,313.09,985.94,313.05Z" fill="#ffce43"/><path d="M982.22,318.83c-.72-.43-1.12-2.12-1.93-2.29a73.76,73.76,0,0,0-6.07,27.07C976.68,335.6,979,326.34,982.22,318.83Z" fill="#415aff" opacity="0.5"/><path d="M1261.1,412.18a61,61,0,0,1-2.1,15.92c-4.87,7.84-15.06,22.6-42.22,22.6-21.84,0-28.4-45.4-36.44-40.48,0,0-3.15-2.34-11.37-5s-10.72-19.1-5.52-37.43,16.1-31.29,24.36-28.95C1228.28,338.89,1261.1,378.45,1261.1,412.18Z" fill="#7add99"/><path d="M1215.76,399.63c-11.65-16.89-47.5-20.8-54.47-21.4-1.83,13.83,1.1,24.95,7.68,27,8.22,2.61,11.37,5,11.37,5,4.56-2.79,8.65,10.62,15.32,22.74.83.16,1.66.3,2.5.42C1228.13,437.63,1215.76,399.63,1215.76,399.63Z" fill="#33cc86" opacity="0.35"/><path d="M1261.1,412.18a61,61,0,0,1-2.1,15.92c-4.87,7.84-15.06,22.6-42.23,22.6-.34,0-.68,0-1,0,21.12-10.52,41.18-22.37,41.18-40.79,0-17-3.22-24.53-3.24-26.86C1258.44,392.51,1261.1,402.58,1261.1,412.18Z" fill="#33cc86" opacity="0.35"/><path d="M1262.94,440.5c-12,19.45-36.81,28.78-55.47,35.06-.46,16.86-9,30.3-31.74,30.3a42.35,42.35,0,0,1-42.35-42.34c0-42.14,60.94-50.89,60.94-68C1243.32,395.54,1262.94,427.71,1262.94,440.5Z" fill="#4d75f4"/><path d="M1207.47,475.56c-.35,12.93-5.45,23.84-18.06,28.23a10,10,0,0,0-4.53-19h-.1C1187.76,481.84,1196.58,479.22,1207.47,475.56Z" fill="#415aff" opacity="0.5"/><path d="M1196.66,489.2a7.22,7.22,0,0,0-4.14-8.51c-1.12.43-2.15.86-3.09,1.28A7.23,7.23,0,0,1,1196.66,489.2Z" fill="#415aff"/><path d="M1252.08,418.22c-11.6,19.13-46.64,30.16-68.1,43.31a36.08,36.08,0,0,1-37.78,0l-.92-.57a14.65,14.65,0,0,1-4.31-20.91c16.33-22.95,53.35-31.21,53.35-44.53C1223,395.54,1241.57,406.53,1252.08,418.22Z" fill="#597cff"/><path d="M1185.27,333c-5.16.64-9.66,3.93-12.55,6.61a8.78,8.78,0,0,1-4.57,2.22c-20.92,3.39-52.44.7-85.21-8.16-16.8-4.54-38.67-12-54.29-19-3.39-1.68-5.84-2.81-7.12-3.38l-1-.61,4.47-12.09a25.35,25.35,0,0,0,3.82.29s22.72,15.84,65.63,15.84c32.38,0,54.12-3.7,68.66-9.64l24.65,5.41h0c4,5.33,5.72,10,5.6,14.05A9,9,0,0,1,1185.27,333Z" fill="#27b772"/><polygon points="1072.41 184.41 1059.83 193.88 1022.27 148.93 1039.65 135.85 1072.41 184.41" fill="#33cc86"/><polygon points="1022.27 148.93 1058.91 192.79 1059.41 192.41 1027.45 145.03 1022.27 148.93" fill="#27b772" opacity="0.35"/><path d="M1027.81,147.72a8,8,0,0,1,9.14-6.88,8.06,8.06,0,0,1,2.7-5h0l-24.84-14.94,7.46,28h0A8,8,0,0,1,1027.81,147.72Z" fill="#ffd2cf"/><path d="M1028.19,146.14a7.91,7.91,0,0,0-.38,1.58,8,8,0,0,0-5.53,1.21h0l-7.47-28Z" fill="#f7b5ce" opacity="0.5"/><path d="M967.85,237.85c46.24-47.7,98.54-77.22,132.52-77.22a81.25,81.25,0,0,1,81.25,81.25c0,19.32,2.81,38.43,7.09,57.13a22.37,22.37,0,0,1-.38,9.92c-7.2,26.18-63.7,33.72-126.19,16.82s-107.32-51.81-100.11-78a22.87,22.87,0,0,1,5.83-9.91Z" fill="#ffd2cf"/><path d="M1008.28,199.15a283.14,283.14,0,0,1,28.5-19l4.18,5-27.79,18.66Z" fill="#ffd2cf"/><path d="M1066.11,270s-.32.2-.86.46l-.46.2c-.17.06-.37.1-.58.15a6.5,6.5,0,0,1-1.46.21h-.84c-.29,0-.58-.06-.89-.1a9.9,9.9,0,0,1-1.89-.48,10.59,10.59,0,0,1-1.86-1,11.1,11.1,0,0,1-1.71-1.36,11,11,0,0,1-1.35-1.7,10,10,0,0,1-1-1.86,9.42,9.42,0,0,1-.49-1.89c0-.31-.08-.6-.1-.89s0-.57,0-.84a6.63,6.63,0,0,1,.21-1.43,5,5,0,0,1,.36-1.06,6.23,6.23,0,0,1,.45-.87s.24.31.54.8a10.18,10.18,0,0,0,.56.85c.21.32.42.66.69,1s.51.72.8,1.09.6.72.86,1.11.62.74,1,1.09.67.7,1,1.06.69.69,1.06,1,.73.62,1.08,1,.74.62,1.12.87.73.56,1.08.79.68.48,1,.69a7.43,7.43,0,0,0,.87.56A7.28,7.28,0,0,1,1066.11,270Z" fill="#e8acac"/><path d="M1052.93,121.08a62.9,62.9,0,0,0-.52,13.14,62,62,0,0,0,93.35,49.35h0a42.79,42.79,0,0,0,41.18,54.28V204.53a33.31,33.31,0,0,0-33.31-33.32A40.67,40.67,0,0,0,1113,130.54c-16.51,0-21.76,4.47-31.51,4.47-12.55,0-20.92-9.15-24.88-14.78A2,2,0,0,0,1052.93,121.08Z" fill="#415aff"/><path d="M967.85,237.85" fill="none" stroke="#ef3fb9" stroke-miterlimit="10"/><path d="M1078.9,205.43s10.06-.51,13.69,7a15.87,15.87,0,0,0-10,5.74S1078.56,213.47,1078.9,205.43Z" fill="#35071e" opacity="0.75"/><path d="M1035.25,190.38s8.41-.43,11.45,5.82a13.27,13.27,0,0,0-8.38,4.8A16,16,0,0,1,1035.25,190.38Z" fill="#35071e" opacity="0.75"/><path d="M1081.12,246.28a2.71,2.71,0,0,0-3.94-.41,23.67,23.67,0,0,1-32.07-1.2,1,1,0,0,0-1.4,0,1,1,0,0,0,0,1.39,28.27,28.27,0,0,0,20.89,9,28,28,0,0,0,15.93-4.89,2.77,2.77,0,0,0,1.15-1.82A2.73,2.73,0,0,0,1081.12,246.28Z" fill="#a01755" opacity="0.5"/><path d="M1188.33,308.93c-7.21,26.18-63.71,33.72-126.2,16.82a257,257,0,0,1-49-18.54c-21.36-12.71-16.56-34.83-16.56-34.83a23.33,23.33,0,0,0,23.33,23.34s21,14.66,60.73,14.66c81,0,90.07-25,90.07-48.35l11.47-4.49A280,280,0,0,0,1188.7,299,22.22,22.22,0,0,1,1188.33,308.93Z" fill="#efbbbb" opacity="0.35"/><path d="M1019.94,295.72s-.58.19-1.59.41l-.85.19c-.31,0-.66.05-1,.08a13.44,13.44,0,0,1-2.54,0l-1.45-.15c-.48-.09-1-.21-1.51-.33a19.56,19.56,0,0,1-3.21-1.08,20.46,20.46,0,0,1-3.16-1.8,22.08,22.08,0,0,1-2.92-2.39,22.75,22.75,0,0,1-2.39-2.92,18,18,0,0,1-2.89-6.37l-.33-1.51c-.05-.5-.1-1-.14-1.45a13.18,13.18,0,0,1,0-2.51c0-.37.05-.71.09-1l.18-.87c.23-1,.42-1.6.42-1.6s.25.57.58,1.54l.26.78c.14.28.25.59.39.9a19.36,19.36,0,0,0,.9,2.09l.53,1.15.65,1.17c.38.83,1,1.59,1.46,2.43s1.12,1.63,1.8,2.39,1.34,1.52,2,2.28,1.47,1.42,2.28,2,1.61,1.2,2.38,1.81,1.61,1.07,2.43,1.46l1.18.65,1.15.53a19.73,19.73,0,0,0,2.06.89l.89.39.82.27C1019.38,295.47,1019.94,295.72,1019.94,295.72Z" fill="#e8acac"/><path d="M1144.61,164.05c0,17.16-23.67,21.56-36.34,21.56s-34.16-5.9-43.8-18.64a61.36,61.36,0,0,1-12.06-32.75,62.9,62.9,0,0,1,.52-13.14,2,2,0,0,1,3.62-.85c4,5.63,12.34,14.77,24.89,14.77,9.75,0,15-4.46,31.5-4.46a40.46,40.46,0,0,1,12.76,2.05C1136.48,139.89,1144.61,147.88,1144.61,164.05Z" fill="#597cff"/><path d="M1185,280.35c-2.16-11.08-14.26-18.32-14.26-18.32l11.47-4.49C1182.78,265.19,1183.74,272.8,1185,280.35Z" fill="#efbbbb" opacity="0.75"/><path d="M1153.61,171.21a40.67,40.67,0,0,0-27.91-38.62c10.78,7.3,18.91,15.29,18.91,31.46a15.77,15.77,0,0,1-2.39,8.54,27.46,27.46,0,0,0-15.53-25c4.46,3.13,7,10.32,7.57,17.36a18.48,18.48,0,0,1-15.41,19.74,67.88,67.88,0,0,1-10.58.88c-12.66,0-34.16-5.9-43.8-18.64a62,62,0,0,0,81.28,16.6,42.79,42.79,0,0,0,41.18,54.27V204.53A33.32,33.32,0,0,0,1153.61,171.21Z" fill="#415aff"/><path d="M1163.76,185.88c5,3.72,9.74,6.1,12.17,2.81,2.19-3,.68-7.87-3.33-11.54a33.53,33.53,0,0,0-7.69-4c-3-.56-5.76.1-7.21,2.06C1155.27,178.53,1158.72,182.17,1163.76,185.88Z" fill="#597cff"/><path d="M1035.44,210.93c-6.43-2.29-18.32-7.29-23.63-12.81-1.46-7.59-.71-16.28,0-21.19,7.47,1.58,24.2,5.67,38.64,13.17A115.77,115.77,0,0,1,1035.44,210.93Z" fill="#fff" opacity="0.35"/><path d="M1104.75,234a247.42,247.42,0,0,1-34.63-10.82c-.61-7.44-1.59-20.91-1.64-28.64,8.69,1.57,29,6,49.14,15.85C1115.77,215.54,1111.48,226,1104.75,234Z" fill="#fff" opacity="0.35"/><path d="M1095.69,201.54l-26.25,12.71c-.18-2.58-.36-5.3-.51-7.95l16.31-7.91C1088.5,199.28,1092,200.32,1095.69,201.54Z" fill="#fff" opacity="0.5"/><path d="M985.94,313.05c-28,0-49.38,14.83-49.38,45.33,0,11.83-3.95,27.83-9.62,27.83,15,0,26.89-13.25,39.34-33.5C973.23,341.41,972.15,328.76,985.94,313.05Z" fill="#597cff"/><path d="M973.52,314.11a48,48,0,0,0-20.83,33.15s2.87-13.41,17.3-24c-2.2,9.33-12.61,47.91-37.79,62.37.55-.12,1.11-.27,1.66-.42,11.85-3.4,21.95-15.49,32.42-32.52,7-11.3,5.87-23.95,19.66-39.66A70.29,70.29,0,0,0,973.52,314.11Z" fill="#415aff" opacity="0.5"/><path d="M1041.73,586.62c60.28,6.86,116.11-3.24,155.32-24.72A179.29,179.29,0,0,0,1214,532.71c-32.42,37-101.44,57.69-178.19,49s-139.15-44.29-162.55-87.49c.85,4.14,1.87,8.23,3,12.26C906.12,546.47,967.81,578.22,1041.73,586.62Z" fill="#2e4eed"/><path d="M995.77,605.38c-31.83-1.75-57.21-19.25-57.21-19.25C930.82,567.56,930,545.6,930,545.6a73.06,73.06,0,0,0,7.59,4.19,125,125,0,0,0,46.71,12.26s4.59,25.67,9.85,39.47C994.67,603,995.22,604.25,995.77,605.38Z" fill="#f9e17a"/><path d="M1002.77,602.38l-7,3c-.55-1.13-1.1-2.43-1.65-3.86-5.26-13.8-9.85-39.47-9.85-39.47a125,125,0,0,1-46.71-12.26A73.06,73.06,0,0,1,930,545.6l7-3s21.71,14.45,54.3,16.45C991.27,559.05,996.86,590.3,1002.77,602.38Z" fill="#ffd442"/><path d="M953.88,556.32,934,572.14c-.82-3.23-1.47-6.37-2-9.29l12.5-9.94C947.28,554.05,950.42,555.21,953.88,556.32Z" fill="#fff" opacity="0.2"/><path d="M969.31,560.21,938.11,585c-.55-1.38-1.07-2.79-1.55-4.19l27.36-21.76Q966.53,559.68,969.31,560.21Z" fill="#fff" opacity="0.2"/><path d="M1014.88,403.42c-7.28-15.3,2.13-24.44-.82-50.09-2.27-19.85-30.32-33.06-31.18-40.58,0,0-11.59,14.85-8.07,45.58S998.3,405.33,1014.88,403.42Z" fill="#597cff"/><path d="M1014.88,403.42c-7.28-15.3,2.13-24.44-.82-50.09-1-8.8-7.08-16.29-13.6-22.56,3.76,4.76,12.79,17,8.73,35.65a145.4,145.4,0,0,0-2.81,29.84c-7.93-.88-18.8-8.12-26.31-18C987.91,395.93,1002.35,404.86,1014.88,403.42Z" fill="#415aff" opacity="0.5"/><path d="M994.42,325.3c-6-5.23-11.18-9.39-11.54-12.55a32.88,32.88,0,0,0-3.63,6.66S982.18,327.14,994.42,325.3Z" fill="#415aff" opacity="0.5"/><ellipse cx="990.44" cy="306.29" rx="14.61" ry="16.52" transform="translate(180.54 953.48) rotate(-55.81)" fill="#f9e17a"/><path d="M1004.1,315.57c-4.54,6.68-14.33,7.93-21.87,2.81a17.58,17.58,0,0,1-2.36-1.91c6.65,1.59,13.51-.55,17.19-6,3.51-5.17,3.17-11.94-.3-17.42a17.24,17.24,0,0,1,1.88,1.12C1006.19,299.33,1008.63,308.9,1004.1,315.57Z" fill="#ffce43"/><polygon points="1031.69 172.88 1053.31 166.55 1055.48 179.08 1032.72 178.55 1031.69 172.88" fill="#415aff"/><polygon points="1104.53 198.4 1080.7 185.35 1089.53 172.82 1108.48 192.69 1104.53 198.4" fill="#415aff"/><path d="M1182.46,229.94c-9.16-3-44.82-13.72-57.1-17.4.61-1.73.94-2.84,1-3l.93-3.16-2.92-1.51c-23.89-12.42-48.33-17.18-56.45-18.51a8.28,8.28,0,0,0-5.16-4.37,8.6,8.6,0,0,0-7.82,1.47c-20.45-10.88-44.73-15-45.8-15.18l-3.81-.64-.77,3.78c-.13.66-3.27,16.32-.34,29.46l.22,1,.64.75c8.2,9.65,29.4,16.48,30.3,16.77l2.36.75,1.72-1.77a121.28,121.28,0,0,0,19.88-28c.19-.34.48-.73.85-.76a.7.7,0,0,1,.44.1c-.73,8.25,1.64,35.49,1.74,36.66l.22,2.46,2.29.91c23.89,9.48,40,12.48,40.63,12.61l2.17.4,1.49-1.63c6-6.58,10.42-14.74,13.24-21.12,11.51,3.45,48.46,14.53,57.56,17.53,10.82,3.55,16.77,18.73,16.07,30.75a4,4,0,0,0,3.77,4.23h.23a4,4,0,0,0,4-3.77C1205,251.29,1195.55,234.24,1182.46,229.94ZM1033.57,210c-6.43-2.29-16.45-6.39-21.76-11.91-1.46-7.59-.71-16.28,0-21.19,7.47,1.58,22.33,4.76,36.77,12.27A116.28,116.28,0,0,1,1033.57,210Zm27.06-20.47Zm42.25,43.57a203.81,203.81,0,0,1-32.76-9.92c-.61-7.44-1.59-20.91-1.64-28.64,8.69,1.57,27.17,5.08,47.27,14.94C1113.9,214.64,1109.61,225.05,1102.88,233.13Z" fill="#253caf"/><path d="M1126.35,209.53l.93-3.16-2.92-1.51c-1.51,15.14-18.86,37.5-18.86,37.5l2.17.4,1.49-1.63c6-6.58,10.42-14.74,13.24-21.12l3-7.47C1126,210.81,1126.3,209.7,1126.35,209.53Z" fill="#153196"/><path d="M1053.36,196.21c-1.42,2.34-13.06,19.62-18,23.15l2.36.75,1.72-1.77a121.28,121.28,0,0,0,19.88-28c.19-.34.48-.73.85-.76C1056.61,188.88,1054.78,193.88,1053.36,196.21Z" fill="#153196"/><path d="M1180,237.54c10.82,3.55,16.77,18.73,16.07,30.75a4,4,0,0,0,3.77,4.23h.23a4,4,0,0,0,4-3.77c1-17.17-8.17-33.94-20.93-38.58,3.12,1.52,2.9,5.46-.71,4.27l-58.57-18L1122.4,220C1133.91,223.46,1170.86,234.54,1180,237.54Z" fill="#153196"/><polygon points="1123.81 216.45 1123.81 216.45 1125.36 212.54 1123.81 216.45" fill="#153196"/><path d="M1166.82,237.25a15.5,15.5,0,1,1,0,21.92" fill="#ffd2cf"/><path d="M1177.53,241.21a7.5,7.5,0,0,0-5.07,2,8.14,8.14,0,0,1,10.9,7.71,8,8,0,0,1-.83,3.56,7.56,7.56,0,0,0-5-13.24Z" fill="#e8acac"/><polyline points="1060.18 202.04 1042.4 201 1051.65 219.25" fill="#efbbbb"/><path d="M1017.58,131.36a10.79,10.79,0,0,0,6.52-4.9l-9.32-5.61Z" fill="#597cff"/><path d="M1127.25,760.21l154.59-89.93,155.64,89.93-154.59,89.72h-20.16Z" fill="#27b772" opacity="0.2" style="isolation:isolate"/><path d="M1135.23,689.4l126.66-73.54,127.49,73.54-126.65,73.75Z" fill="#7add99"/><path d="M1143.84,603.25l118.05-68.5,118.67,68.5-117.83,68.5Z" fill="#7193ff"/><path d="M1372.37,521.3l7.35,72.07-117,68.08V585Z" fill="#27b772"/><path d="M1380.56,603.25l7.78,76.27-125.61,73.12V671.75Z" fill="#415aff"/><path d="M1389.38,689.4l8.41,81.94-135.06,78.59V763.15Z" fill="#27b772"/><path d="M1152.25,521.3l-7.36,72.07,117.84,68.08V585Z" fill="#33cc86"/><path d="M1143.84,603.25l-7.56,76.27,126.45,73.12V671.75Z" fill="#597cff"/><path d="M1135.23,689.4l-8.4,81.94,135.9,78.59V763.15Z" fill="#33cc86"/><path d="M1152.25,521.3l109.64-63.88,110.48,63.88L1262.73,585Z" fill="#7add99"/><g opacity="0.2"><path d="M1144.9,593.37l7.35-72.07L1189,542.52l-4.83,73.55Z" fill="#27b772"/></g><g opacity="0.25"><path d="M1136.28,679.52l7.56-76.27,39.7,22.9-5,77.75Z" fill="#415aff"/></g><g opacity="0.2"><path d="M1126.83,771.34l8.4-81.94L1177.66,714l-5.46,83.63Z" fill="#27b772"/></g><path d="M1168.84,552.19c-5.46,0-6.09,4.2-6.09,6.72,0,4.41,3.15,9.87,7.77,9.87,5.46,0,6.09-4.2,6.09-6.73C1176.61,557.44,1173.46,552.19,1168.84,552.19Z" fill="#fff"/><path d="M1166.74,554.29c4,0,6.51,4.41,6.51,8.2,0,2.1-.43,5.67-5,5.67a7,7,0,0,1-7.14-6.91v0A6.91,6.91,0,0,1,1166.74,554.29Z" fill="#415aff"/><path d="M1160.44,633.92c-5.46,0-6.09,4.21-6.09,6.73,0,4.41,3.15,9.86,7.77,9.86,5.46,0,6.09-4.2,6.09-6.72C1168.21,639.39,1165.06,633.92,1160.44,633.92Z" fill="#fff"/><path d="M1158.34,636c4,0,6.51,4.41,6.51,8.19,0,2.1-.43,5.67-5,5.67a7,7,0,0,1-7.14-6.9v0C1152.88,639,1156.24,636,1158.34,636Z" fill="#f7d83e"/><path d="M1151.62,720.29c-5.47,0-6.1,4.2-6.1,6.72,0,4.41,3.15,9.86,7.78,9.86,5.46,0,6.09-4.2,6.09-6.72C1159.6,725.75,1156.45,720.29,1151.62,720.29Z" fill="#fff"/><path d="M1149.52,722.39c4,0,6.51,4.41,6.51,8.19,0,2.1-.43,5.67-5,5.67a7,7,0,0,1-7.14-6.9v0A7.32,7.32,0,0,1,1149.52,722.39Z" fill="#f7d83e"/><path d="M1202,597.79l6.3,3.57-.42,6.29-6.09-3.56Z" fill="#27b772"/><path d="M1209,587.91l-.43,6.09-6.08-3.57.43-5.88Z" fill="#27b772"/><path d="M1243.82,622l6.1,3.57V632l-6.1-3.57Z" fill="#27b772"/><path d="M1250.13,611.86V618l-6.1-3.58.22-6.09Z" fill="#27b772"/><path d="M1223,609.76l6.09,3.57-.22,6.51-6.09-3.56Z" fill="#27b772"/><path d="M1229.54,599.89l-.21,6.09-6.09-3.57.22-5.89Z" fill="#27b772"/><path d="M1197.41,685.83l6.93,4-.22,8.61-7.13-4.2Z" fill="#415aff"/><path d="M1205,674.69l-.22,7.77-6.92-4v-1.68l.42-6.09Z" fill="#415aff"/><path d="M1242.36,711.67l6.93,4v8.83l-6.93-4Z" fill="#415aff"/><path d="M1249.5,700.32l-.22,8-6.71-4v-7.78Z" fill="#415aff"/><path d="M1219.88,698.85l6.93,4-.21,8.62-6.93-4Z" fill="#415aff"/><path d="M1227.23,687.5l-.21,7.78-6.93-4h0l.21-7.78Z" fill="#415aff"/><path d="M1192.37,778.28l7.77,4.62h0l-.43,8.4-7.76-4.41Z" fill="#27b772"/><path d="M1201,765.88l-.42,9.67-7.77-4.43.43-9.86Z" fill="#27b772"/><path d="M1240.67,806.22l7.78,4.41v8.83l-7.78-4.62Z" fill="#27b772"/><path d="M1248.66,793.41v9.86l-7.78-4.41.22-9.87Z" fill="#27b772"/><path d="M1216.52,792.36l7.77,4.41h0l-.21,8.61-7.77-4.62Z" fill="#27b772"/><path d="M1224.71,779.54l-.21,9.86-7.77-4.41.43-9.86Z" fill="#27b772"/><path d="M1360.19,612.28c-1-8.82-5.25-14.91-11.13-17.23a.22.22,0,0,1,.21.22h0l-5.88-2.52a18.3,18.3,0,0,0-16.6,1.68c-13.23,7.35-22.47,26.26-20.58,42,1,8.61,5.25,14.71,10.92,17.23l5.88,2.52c-.21,0-.43-.21-.63-.21,4.83,2.31,10.92,2.1,17.22-1.48C1353.05,647,1362.29,628.25,1360.19,612.28Z" fill="#fff"/><path d="M1332.67,596.94c13.24-7.35,25.63-.42,27.52,15.34,1.89,16-7.35,34.67-20.59,42s-25.61.42-27.51-15.34C1310.2,623,1319.44,604.3,1332.67,596.94Z" fill="#f2f2f2"/><path d="M1353.05,614.17h0l-3.78-1.68h-.43L1343,615l-1.47-11.76c0-.43-.22-.63-.43-.63h.21l-3.78-1.68h-.63l-.63.63-13.65,33a1.18,1.18,0,0,0,.22,1.26l3.78,1.68a.22.22,0,0,1-.22-.22h0a.75.75,0,0,0,.63.22l5.46-2.94,1.68,12.39c0,.22.22.43.43.63l3.78,1.68h.63l.64-.63,13.64-33C1353.47,614.8,1353.26,614.17,1353.05,614.17Z" fill="#f7d83e"/><path d="M1340.66,602.62a.53.53,0,0,1,.84.42l1.89,16,9-5c.63-.43,1,.43.84,1.26l-13.64,33c-.22.21-.43.63-.64.63-.42.21-.84,0-.84-.43l-1.9-16-9,5c-.63.43-1-.43-.84-1.26l13.65-33Z" fill="#e8c534"/><path d="M1250.55,598l-.43,6.3-47-27.11.43-6.3Z" fill="#27b772"/><path d="M1248.87,774.93l-.22,10.92-55-31.73.64-10.72Z" fill="#27b772"/><path d="M1249.5,684.14v8.62l-51-29.21.63-8.61Z" fill="#415aff"/><path d="M812.77,369.48l1.93-.73a2.5,2.5,0,0,0,1.45-3.22l-2.65-7,2.33-.89a2.49,2.49,0,0,0,1.6-2.54L815.9,337c0-.49.05-.13-2.81-7.67a2.49,2.49,0,0,0-3.21-1.44l-6.2-16.32a2.48,2.48,0,0,0-3.21-1.45l-7,2.66a2.5,2.5,0,0,0-3.22-1.45l-9.33,3.54a2.49,2.49,0,0,0-1.44,3.21l-7,2.66a2.49,2.49,0,0,0-1.44,3.21l6.19,16.32a2.5,2.5,0,0,0-1.45,3.22l2.66,7c.18.48-.61-.65,11.18,15.16a2.52,2.52,0,0,0,2.89.84l2.33-.89,2.65,7a2.5,2.5,0,0,0,3.22,1.44l2.49-.94m-13.11-27,14-5.31a2.49,2.49,0,1,1,1.77,4.66l-14,5.31a2.49,2.49,0,0,1-1.77-4.66Zm9.81-30.39,5.3,14-9.32,3.54-1.77-4.67,2.33-.88a2.5,2.5,0,0,0,1.45-3.22l-2.66-7ZM789.7,316.9l2.65,7-4.66,1.77-2.66-7Zm-8.44,5.87,2.65,7a2.5,2.5,0,0,0,3.22,1.45l2.33-.89,1.77,4.66-9.33,3.54-5.31-14Z" fill="#4d75f4"/><rect x="622.93" y="333.8" width="70.52" height="70.07" rx="12" fill="#597cff" stroke="#fff" stroke-miterlimit="10" stroke-width="9"/><polygon points="668.01 360.69 668.01 356.86 663.18 356.86 663.18 352.07 651.94 352.07 651.94 356.86 647.4 356.86 647.4 360.69 640.86 360.69 640.86 384.39 674.35 384.39 674.35 360.69 668.01 360.69" fill="#253caf"/></svg>