<svg xmlns="http://www.w3.org/2000/svg" width="361.49" height="77.37" viewBox="0 0 361.49 77.37"><path d="M156.7,31.4a14.05,14.05,0,1,1-13.9,14.1A13.91,13.91,0,0,1,156.7,31.4Zm0,22.3a8.3,8.3,0,1,0-8.1-8.3A8.17,8.17,0,0,0,156.7,53.7Z" transform="translate(0 -4.45)" fill="#597cff"/><path d="M192.9,31.4A14.05,14.05,0,1,1,179,45.5,13.91,13.91,0,0,1,192.9,31.4Zm0,22.3a8.3,8.3,0,1,0-8.1-8.3A8.17,8.17,0,0,0,192.9,53.7Z" transform="translate(0 -4.45)" fill="#597cff"/><path d="M15.3,44.4a6.68,6.68,0,0,1,5.2,6.2A8.28,8.28,0,0,1,11.8,59H.6a.65.65,0,0,1-.6-.6V32.2a.65.65,0,0,1,.6-.6H11c4.9,0,8.1,2.9,8.1,7.6A5.6,5.6,0,0,1,15.3,44.4Zm-4.9-2a2.56,2.56,0,0,0,2.5-2.8c0-1.7-.9-2.9-2.6-2.9H5.8v5.7ZM5.8,47.2v6.6h5.6c1.9,0,2.9-1.7,2.9-3.4a3.15,3.15,0,0,0-3.1-3.3H5.8Z" transform="translate(0 -4.45)" fill="#597cff"/><path d="M36.3,32.2V58.3a.65.65,0,0,1-.6.6H31.1a.65.65,0,0,1-.6-.6V32.2a.65.65,0,0,1,.6-.6h4.6A.65.65,0,0,1,36.3,32.2Z" transform="translate(0 -4.45)" fill="#597cff"/><path d="M66.8,39.1a.61.61,0,0,1-.8,0,7.79,7.79,0,0,0-5.6-2.4,8.42,8.42,0,0,0-8.2,8.7,8.48,8.48,0,0,0,8.2,8.7c2.9,0,6.6-1.8,6.6-4.7H60.3a.65.65,0,0,1-.6-.6V45.3a.65.65,0,0,1,.6-.6H73.1a.65.65,0,0,1,.6.6c-.2,9.8-5.6,14.1-13.3,14.1a14.05,14.05,0,0,1,0-28.1,13.16,13.16,0,0,1,9.8,4,.63.63,0,0,1-.1.9Z" transform="translate(0 -4.45)" fill="#597cff"/><path d="M87,51a.63.63,0,0,1,.6.5c.3,1.5,1.7,2.8,4,2.8s4-1.1,4-2.9c0-1.2-.5-2.3-3.3-3.1l-3.3-1c-6-1.9-7.1-5.4-7.1-7.9,0-4.9,4.2-8.2,9.4-8.2s8.9,2.9,9.2,7.7a.67.67,0,0,1-.6.7H95.3a.63.63,0,0,1-.6-.5c-.2-1.5-1.4-2.6-3.5-2.6s-3.5,1.1-3.5,2.7c0,.7.3,2,2.9,2.8l3.3,1c6.6,1.9,7.6,5.6,7.5,8.3-.1,5.4-5,8-9.8,8-5.7,0-9.6-3.2-9.9-7.8a.67.67,0,0,1,.6-.7H87Z" transform="translate(0 -4.45)" fill="#597cff"/><path d="M134.6,53a.65.65,0,0,1,.2.9,13.85,13.85,0,0,1-24.9-8.5,13.82,13.82,0,0,1,24.7-8.8.65.65,0,0,1-.2.9l-3.7,2.6a.61.61,0,0,1-.8-.1,7.91,7.91,0,0,0-6.3-3.1c-4.6,0-7.9,3.8-7.9,8.6S119,54,123.6,54a8.19,8.19,0,0,0,6.5-3.3.53.53,0,0,1,.8-.1Z" transform="translate(0 -4.45)" fill="#597cff"/><path d="M214.8,31.6h19.4a.65.65,0,0,1,.6.6v4a.65.65,0,0,1-.6.6h-6.8V58.3a.65.65,0,0,1-.6.6h-4.6a.65.65,0,0,1-.6-.6V36.9h-6.8a.65.65,0,0,1-.6-.6v-4A.56.56,0,0,1,214.8,31.6Z" transform="translate(0 -4.45)" fill="#597cff"/><path d="M248.2,51a.63.63,0,0,1,.6.5c.3,1.5,1.7,2.8,4,2.8s4-1.1,4-2.9c0-1.2-.5-2.3-3.3-3.1l-3.3-.9c-6-1.9-7.1-5.4-7.1-7.9,0-4.9,4.2-8.2,9.4-8.2s8.9,2.9,9.2,7.7a.67.67,0,0,1-.6.7h-4.6a.63.63,0,0,1-.6-.5c-.2-1.5-1.4-2.6-3.5-2.6s-3.5,1.1-3.5,2.7c0,.7.3,2,2.9,2.8l3.3,1c6.6,1.9,7.6,5.6,7.5,8.3-.1,5.4-5,8-9.8,8-5.7,0-9.6-3.2-9.9-7.8a.67.67,0,0,1,.6-.7h4.7Z" transform="translate(0 -4.45)" fill="#597cff"/><path d="M329.1,12.8A7.81,7.81,0,0,0,321.3,5c-2.8,0-3.5,1.8-6.2,1.8a3.92,3.92,0,0,1-3.5-2.1.49.49,0,0,0-.9.1,7.57,7.57,0,0,0-.1,1.5,8.44,8.44,0,0,0,12.6,7.4v.7a5.34,5.34,0,0,0,5.3,5.3h.7V12.8Z" transform="translate(0 -4.45)" fill="#597cff"/><path d="M339.8,34.9a13.4,13.4,0,0,0-3.4-2.8,18.68,18.68,0,0,1,4.3,1.9c1.8-2,2.3-4.8,4.3-6.9,5.2-5.8,18.2,0,16.3-10.1-.4,2.3-1.4,3-3.3,3-3.6,0-7-4.5-14.5-4.5-7.2,0-11,8.3-12.5,11.5-1.3,2.8-5.7,4.6-11,4.6-1,0-2.1-.1-3.2-.2-7.5-1-13.2-5.2-12.7-9.3a10.26,10.26,0,0,1,.4-1.4,46.49,46.49,0,0,0-9.6,16,2.35,2.35,0,0,0-.2.8c0,.1,0,.1-.1.2s-.1.2-.1.3-.1.2-.1.3a.37.37,0,0,1-.1.3c0,.1-.1.2-.1.4s-.1.2-.1.3v.1a.37.37,0,0,1-.1.3,24.87,24.87,0,0,0-.5,4.6,21.22,21.22,0,0,0,14.4,20.1h0c.2.1.4.1.6.2a20,20,0,0,0,6.1.9h1.3c1.8,4.8,9,16.8,10.8,16.3,2-.5,2.2-16.1,1-20.5,0-.1-.1-.2-.1-.4a21,21,0,0,0,5-5.7,26,26,0,0,1-4,.3A20.32,20.32,0,0,1,315.3,51h0a21.45,21.45,0,0,0,8.9,1.8,21.75,21.75,0,0,0,10.5-2.6h0c4.1-2.3,6.8-6,6.8-10.2a6.27,6.27,0,0,0-1.7-5.1ZM310.3,42c-1,4.1-4.4,6.7-7.7,5.9s-5.2-4.7-4.2-8.8,4.4-6.7,7.7-5.9S311.3,38,310.3,42Z" transform="translate(0 -4.45)" fill="#597cff"/><path d="M308,64.3a21.62,21.62,0,0,1-8.1-2.2c.6,4.9,1.8,9.8,3,10s3.7-3.5,5.8-7.6Z" transform="translate(0 -4.45)" fill="#597cff"/><path d="M294.9,36.7h0a34.18,34.18,0,0,1,3.8-12.4,8.29,8.29,0,0,0-4.6,15.2C294.3,38.6,294.6,37.6,294.9,36.7Z" transform="translate(0 -4.45)" fill="#597cff"/></svg>