<svg xmlns="http://www.w3.org/2000/svg" width="205.285" height="70.69" viewBox="0 0 205.285 70.69"><g id="Group_16" data-name="Group 16" transform="translate(-4.081 -9.882)"><g id="Group_13" data-name="Group 13" transform="translate(4.081 9.882)"><path id="Path_5" data-name="Path 5" d="M4.081,9.883H20.316c4.58,0,8.17,1.353,10.512,3.642a11.007,11.007,0,0,1,3.018,7.858v.1c0,5.985-3.591,9.576-8.638,11.032l9.835,13.79h-7.6l-8.951-12.7H10.482v12.7h-6.4ZM19.848,27.939c4.58,0,7.494-2.394,7.494-6.088v-.1c0-3.9-2.811-6.036-7.546-6.036H10.482V27.939Z" transform="translate(-4.081 -9.883)"></path><path id="Path_6" data-name="Path 6" d="M215.9,9.883h7.077l10.979,28,10.928-28h6.92l-15.09,36.686h-5.673Z" transform="translate(-110.785 -9.883)"></path><path id="Path_7" data-name="Path 7" d="M355.363,9.883H371.6c4.58,0,8.17,1.353,10.512,3.642a11.007,11.007,0,0,1,3.018,7.858v.1c0,5.985-3.591,9.576-8.638,11.032l9.835,13.79h-7.6l-8.951-12.7h-8.013v12.7h-6.4ZM371.13,27.939c4.58,0,7.494-2.394,7.494-6.088v-.1c0-3.9-2.811-6.036-7.546-6.036h-9.315V27.939Z" transform="translate(-181.04 -9.883)"></path></g><g id="Group_14" data-name="Group 14" transform="translate(69.054 70.172)"><path id="Path_8" data-name="Path 8" d="M135.01,131.722h1.767v8.446h5.286v1.609H135.01Z" transform="translate(-135.01 -131.549)"></path><path id="Path_9" data-name="Path 9" d="M165.919,136.6v-.029a5.258,5.258,0,0,1,10.515-.029v.029a5.258,5.258,0,0,1-10.515.029Zm8.662,0v-.029A3.445,3.445,0,0,0,171.162,133a3.4,3.4,0,0,0-3.39,3.548v.029a3.433,3.433,0,0,0,3.419,3.563A3.385,3.385,0,0,0,174.581,136.6Z" transform="translate(-150.581 -131.374)"></path><path id="Path_10" data-name="Path 10" d="M206.465,131.722h7.484v1.609h-5.717v2.743H213.3v1.609h-5.071v4.094h-1.767Z" transform="translate(-171.006 -131.549)"></path><path id="Path_11" data-name="Path 11" d="M242.241,133.359h-3.189v-1.637h8.159v1.637h-3.189v8.418h-1.781Z" transform="translate(-187.421 -131.549)"></path><path id="Path_12" data-name="Path 12" d="M272.508,140.166l1.063-1.264a4.655,4.655,0,0,0,3.174,1.307c1.092,0,1.782-.517,1.782-1.264v-.029c0-.719-.4-1.106-2.269-1.537-2.141-.517-3.347-1.149-3.347-3v-.029c0-1.724,1.436-2.916,3.433-2.916a5.572,5.572,0,0,1,3.649,1.264l-.948,1.336A4.564,4.564,0,0,0,276.314,133c-1.034,0-1.638.531-1.638,1.192v.029c0,.776.46,1.121,2.4,1.58,2.126.518,3.218,1.279,3.218,2.945v.029c0,1.882-1.48,3-3.591,3A6.194,6.194,0,0,1,272.508,140.166Z" transform="translate(-204.275 -131.403)"></path></g><path id="Path_13" data-name="Path 13" d="M135.111,9.882h5.314c-5.633,12.142,5.634,24.284,0,36.426h-5.314C140.744,34.166,129.477,22.024,135.111,9.882Z" transform="translate(-65.187)"></path></g></svg>