<?xml version="1.0" encoding="UTF-8" standalone="no"?> <svg xmlns="http://www.w3.org/2000/svg" version="1.0" width="191.000000pt" height="168.000000pt" viewBox="0 0 191.000000 168.000000" preserveAspectRatio="xMidYMid meet"><metadata> Created by potrace 1.16, written by Peter Selinger 2001-2019 </metadata><g transform="translate(0.000000,168.000000) scale(0.100000,-0.100000)" fill="#000000" stroke="none"><path d="M0 840 l0 -840 955 0 955 0 0 840 0 840 -955 0 -955 0 0 -840z m1467 765 c193 -45 317 -197 330 -405 20 -308 -233 -532 -529 -469 -107 23 -213 97 -265 186 l-25 43 -90 -115 c-76 -96 -95 -115 -118 -115 -27 0 -38 13 -232 263 -9 12 -38 50 -65 83 -26 34 -91 117 -143 184 l-95 123 -5 -324 -5 -324 -52 -3 -53 -3 0 435 0 436 43 0 43 0 229 -296 c127 -163 235 -302 240 -308 6 -6 28 -35 50 -63 21 -29 42 -53 46 -53 3 0 43 48 89 107 76 101 81 110 76 145 -10 59 12 175 45 244 34 72 109 153 172 186 58 30 154 56 207 57 25 0 73 -6 107 -14z m-1247 -1170 c28 -41 52 -75 54 -75 2 0 25 34 52 75 41 63 53 75 77 75 l27 0 0 -115 0 -115 -29 0 c-29 0 -30 2 -33 53 l-3 52 -35 -52 c-46 -70 -68 -70 -114 -2 l-35 52 -3 -49 c-3 -47 -4 -49 -33 -49 l-30 0 -3 99 c-1 55 0 106 2 113 3 7 17 13 30 13 20 0 36 -15 76 -75z m400 60 c40 -21 60 -53 60 -97 0 -75 -44 -121 -117 -121 -54 0 -94 27 -110 76 -34 102 71 192 167 142z m231 -8 c67 -45 75 -122 19 -179 -26 -25 -35 -28 -99 -28 l-71 0 0 115 0 115 59 0 c44 0 66 -6 92 -23z m257 -9 c3 -28 3 -28 -57 -28 -48 0 -61 -3 -61 -15 0 -11 12 -15 50 -15 49 0 50 -1 50 -30 0 -29 -2 -30 -44 -30 -25 0 -48 -4 -51 -10 -4 -6 17 -10 54 -10 l61 0 0 -30 0 -30 -90 0 -90 0 0 115 0 116 88 -3 c87 -3 87 -3 90 -30z m171 17 c45 -23 55 -74 22 -116 -19 -24 -19 -25 5 -54 32 -40 30 -45 -10 -45 -27 0 -39 7 -60 35 -15 19 -31 35 -37 35 -5 0 -9 -16 -9 -35 0 -32 -2 -35 -30 -35 l-30 0 0 115 0 115 60 0 c34 0 74 -7 89 -15z m137 -12 c9 -15 26 -36 36 -47 10 -11 19 -25 20 -30 1 -6 4 14 7 44 6 51 8 55 34 58 l27 3 0 -115 c0 -116 0 -116 -24 -116 -17 0 -36 15 -65 51 l-41 52 0 -52 0 -51 -35 0 -35 0 0 108 c0 60 3 112 7 115 16 16 52 5 69 -20z m324 12 c41 -21 60 -53 60 -102 0 -35 -6 -50 -33 -80 -29 -31 -40 -36 -78 -37 -85 -2 -143 68 -120 145 23 76 102 110 171 74z"></path><path d="M1420 1167 l0 -336 28 8 c38 11 90 38 129 68 61 45 113 164 113 260 0 58 -31 152 -69 207 -36 52 -119 112 -168 122 l-33 7 0 -336z"></path><path d="M1243 1303 c-33 -43 -87 -114 -122 -159 l-62 -81 20 -45 c35 -81 116 -154 200 -178 l31 -9 0 275 c0 151 -2 274 -4 274 -2 0 -30 -35 -63 -77z"></path></g></svg> 