<?xml version="1.0" encoding="UTF-8"?> <svg xmlns="http://www.w3.org/2000/svg" xmlns:xlink="http://www.w3.org/1999/xlink" version="1.1" id="Layer_1" x="0px" y="0px" viewBox="0 0 734 702" style="enable-background:new 0 0 734 702;" xml:space="preserve"> <style type="text/css"> .st0{fill:#FFFFFF;} .st1{display:none;fill:#FFFFFF;enable-background:new ;} .st2{font-family:'Gotham-Book';} .st3{font-size:47.6119px;} .st4{letter-spacing:8;} </style> <g> <path class="st0" d="M542.7,15.2c-104.7,0-183.6,81.6-183.6,189.9v1c0,11.7,1,23,2.7,33.9l-75.5,97L40.4,21H27.8H17.6H7.8v369.1 h41.6V100.6l225.3,289.5h6.5h10.2h6.4l78.5-100.9c28.8,64.2,90.8,106.7,166.3,106.7c104.7,0,183.6-81.6,183.6-189.9v-1 C726.3,96.8,647.4,15.2,542.7,15.2z M499.1,63.6L402.3,188C408.4,121.8,450.6,79.3,499.1,63.6z M523.2,353.1 c-60-8.2-100.7-52.7-115.5-104.1l115.5-148.4V353.1z M683.9,206.5c0,86-58,136.5-119.1,146.2V58.4c75,11.6,119.1,80.4,119.1,147.2 V206.5z"></path> <g> <path class="st0" d="M197.5,491.6c-27.2,0-48.6,21.1-48.6,48v0.2c0,27.2,20.8,47.7,48.4,47.7c27.2,0,48.6-21.1,48.6-48v-0.2 C245.9,512.1,225.1,491.6,197.5,491.6z M197.5,566.6c-14.6,0-25.6-11.6-25.6-27v-0.2c0-15.2,10.9-26.7,25.4-26.7 c14.6,0,25.6,11.6,25.6,27v0.2C222.9,555.1,212,566.6,197.5,566.6z"></path> <path class="st0" d="M293.9,493.1h-35.6v93h35.6c28.5,0,49.2-19.6,49.2-46.5v-0.2C343.1,512.5,322.4,493.1,293.9,493.1z M293.9,565.2h-13.4v-51.3h13.4c15.7,0,26.2,10.3,26.2,25.6v0.2C320.1,555,309.6,565.2,293.9,565.2z"></path> <polygon class="st0" points="379.5,549.5 422.6,549.5 422.6,528.9 379.5,528.9 379.5,513.7 428.1,513.7 428.1,493.1 357.3,493.1 357.3,586.1 428.7,586.1 428.7,565.4 379.5,565.4 "></polygon> <path class="st0" d="M519.9,524v-0.2c0-8.4-2.8-15.7-8.2-21c-6.3-6.3-15.7-9.6-27.3-9.6h-41.8v93h22.2v-29.9h13.5l21.1,29.9H526 l-24.5-34.3C513.3,546.8,519.9,536.9,519.9,524z M464.8,513.9h18.4c6.5,0,14.2,1.9,14.2,10.7v0.2c0,6.8-5.3,10.8-14.1,10.8h-18.5 V513.9z"></path> <polygon class="st0" points="594.3,545.6 553.6,493.1 534.3,493.1 534.3,586.1 556.3,586.1 556.3,531.8 598.4,586.1 616.3,586.1 616.3,493.1 594.3,493.1 "></polygon> <path class="st0" d="M679.1,491.6c-27.3,0-48.6,21.1-48.6,48v0.2c0,27.2,20.8,47.7,48.3,47.7c27.3,0,48.6-21.1,48.6-48v-0.2 C727.5,512.1,706.7,491.6,679.1,491.6z M679.1,566.6c-14.6,0-25.6-11.6-25.6-27v-0.2c0-15.2,10.9-26.7,25.4-26.7 c14.6,0,25.6,11.6,25.6,27v0.2C704.5,555.1,693.6,566.6,679.1,566.6z"></path> <polygon class="st0" points="72.5,559.4 25.2,491.6 7.2,491.6 7.2,584.7 27.6,584.7 27.6,531.4 64.5,584.7 66.5,584.7 77.6,584.7 79.6,584.7 116.4,531.4 116.4,584.7 136.8,584.7 136.8,491.6 118.9,491.6 "></polygon> </g> <text transform="matrix(1 0 0 1 5.5347 674.8881)" class="st1 st2 st3 st4">DEVELOPMENT GROUP</text> <path class="st0" d="M542.7,15.2c-104.7,0-183.6,81.6-183.6,189.9v1c0,11.7,1,23,2.7,33.9l-75.5,97L40.4,21H7.8v369.1h41.6V100.6 l225.3,289.5h6.5h10.2h6.4l78.5-100.9c28.8,64.2,90.8,106.7,166.3,106.7c104.7,0,183.6-81.6,183.6-189.9v-1 C726.3,96.8,647.4,15.2,542.7,15.2z M499.1,63.6L402.3,188C408.4,121.8,450.6,79.3,499.1,63.6z M523.2,353.1 c-60-8.2-100.7-52.7-115.5-104.1l115.5-148.4V353.1z M683.9,206.5c0,86-58,136.5-119.1,146.2V58.4c75,11.6,119.1,80.4,119.1,147.2 V206.5z"></path> <g> <path class="st0" d="M197.5,491.6c-27.2,0-48.6,21.1-48.6,48v0.2c0,27.2,20.8,47.7,48.4,47.7c27.2,0,48.6-21.1,48.6-48v-0.2 C245.9,512.1,225.1,491.6,197.5,491.6z M197.5,566.6c-14.6,0-25.6-11.6-25.6-27v-0.2c0-15.2,10.9-26.7,25.4-26.7 c14.6,0,25.6,11.6,25.6,27v0.2C222.9,555.1,212,566.6,197.5,566.6z"></path> <path class="st0" d="M293.9,493.1h-35.6v93h35.6c28.5,0,49.2-19.6,49.2-46.5v-0.2C343.1,512.5,322.4,493.1,293.9,493.1z M293.9,565.2h-13.4v-51.3h13.4c15.7,0,26.2,10.3,26.2,25.6v0.2C320.1,555,309.6,565.2,293.9,565.2z"></path> <polygon class="st0" points="379.5,549.5 422.6,549.5 422.6,528.9 379.5,528.9 379.5,513.7 428.1,513.7 428.1,493.1 357.3,493.1 357.3,586.1 428.7,586.1 428.7,565.4 379.5,565.4 "></polygon> <path class="st0" d="M519.9,524v-0.2c0-8.4-2.8-15.7-8.2-21c-6.3-6.3-15.7-9.6-27.3-9.6h-41.8v93h22.2v-29.9h13.5l21.1,29.9H526 l-24.5-34.3C513.3,546.8,519.9,536.9,519.9,524z M464.8,513.9h18.4c6.5,0,14.2,1.9,14.2,10.7v0.2c0,6.8-5.3,10.8-14.1,10.8h-18.5 V513.9z"></path> <polygon class="st0" points="594.3,545.6 553.6,493.1 534.3,493.1 534.3,586.1 556.3,586.1 556.3,531.8 598.4,586.1 616.3,586.1 616.3,493.1 594.3,493.1 "></polygon> <path class="st0" d="M679.1,491.6c-27.3,0-48.6,21.1-48.6,48v0.2c0,27.2,20.8,47.7,48.3,47.7c27.3,0,48.6-21.1,48.6-48v-0.2 C727.5,512.1,706.7,491.6,679.1,491.6z M679.1,566.6c-14.6,0-25.6-11.6-25.6-27v-0.2c0-15.2,10.9-26.7,25.4-26.7 c14.6,0,25.6,11.6,25.6,27v0.2C704.5,555.1,693.6,566.6,679.1,566.6z"></path> <polygon class="st0" points="72.5,559.4 25.2,491.6 7.2,491.6 7.2,584.7 27.6,584.7 27.6,531.4 64.5,584.7 66.5,584.7 77.6,584.7 79.6,584.7 116.4,531.4 116.4,584.7 136.8,584.7 136.8,491.6 118.9,491.6 "></polygon> </g> <g> <path class="st0" d="M10.2,641.6h11.6c10.5,0,17.7,7.2,17.7,16.6v0.1c0,9.4-7.2,16.7-17.7,16.7H10.2V641.6z M21.8,671.4 c8.4,0,13.8-5.7,13.8-13.1v-0.1c0-7.4-5.4-13.2-13.8-13.2H14v26.4L21.8,671.4L21.8,671.4z"></path> <path class="st0" d="M57,641.6h24.1v3.4H60.8v11.4H79v3.4H60.8v11.7h20.6v3.4H57V641.6z"></path> <path class="st0" d="M95.6,641.6h4.2l11.9,28.7l11.9-28.7h4l-14.3,33.6H110L95.6,641.6z"></path> <path class="st0" d="M143.7,641.6h24.1v3.4h-20.3v11.4h18.2v3.4h-18.2v11.7H168v3.4h-24.3V641.6z"></path> <path class="st0" d="M185.1,641.6h3.8v29.8h18.8v3.5h-22.5v-33.3H185.1z"></path> <path class="st0" d="M220.7,658.3L220.7,658.3c0-9.3,6.9-17.3,17-17.3s16.9,8,16.9,17.1c0,0,0,0,0,0.1c0,9.2-6.9,17.2-17,17.2 C227.5,675.5,220.7,667.5,220.7,658.3z M250.8,658.3L250.8,658.3c0-7.7-5.5-13.9-13.1-13.9s-13,6.1-13,13.7v0.1 c0,7.6,5.5,13.8,13.1,13.8C245.4,672,250.8,665.9,250.8,658.3z"></path> <path class="st0" d="M272.2,641.6h12.5c7.5,0,12.5,4,12.5,10.6v0.1c0,7.2-6,10.9-13.1,10.9H276V675h-3.8V641.6z M284.2,659.7 c5.5,0,9.1-3,9.1-7.3v-0.1c0-4.8-3.6-7.2-9-7.2h-8.4v14.7h8.3V659.7z"></path> <path class="st0" d="M313.5,641.6h3.8l12.1,18.2l12.1-18.2h3.8v33.3h-3.8v-27l-12.1,17.9h-0.2L317.1,648v26.9h-3.7v-33.3H313.5z"></path> <path class="st0" d="M364.3,641.6h24.1v3.4h-20.3v11.4h18.2v3.4h-18.2v11.7h20.6v3.4h-24.3v-33.3H364.3z"></path> <path class="st0" d="M405.8,641.6h3.5l21,26.7v-26.7h3.7v33.3h-3l-21.5-27.3v27.3h-3.7V641.6z"></path> <path class="st0" d="M461.7,645h-11.2v-3.5h26.2v3.5h-11.2v29.8h-3.8V645z"></path> <path class="st0" d="M515.6,658.3L515.6,658.3c0-9.2,6.7-17.3,16.7-17.3c5.6,0,9.1,1.6,12.4,4.4l-2.4,2.9 c-2.6-2.2-5.4-3.8-10.1-3.8c-7.4,0-12.7,6.2-12.7,13.7v0.1c0,8,5.1,13.9,13.2,13.9c3.8,0,7.3-1.5,9.6-3.3v-8.3h-10.1v-3.4H546 v13.3c-3.1,2.8-7.8,5.1-13.4,5.1C522.1,675.5,515.6,667.8,515.6,658.3z"></path> <path class="st0" d="M563.9,641.6h14.3c4.1,0,7.4,1.2,9.5,3.3c1.6,1.6,2.6,4,2.6,6.6v0.1c0,5.5-3.8,8.8-9,9.7l10.2,13.6h-4.6 l-9.7-12.9h-0.1h-9.4v12.9h-3.8V641.6z M577.9,658.6c5,0,8.6-2.6,8.6-6.9v-0.1c0-4.1-3.1-6.6-8.5-6.6h-10.3v13.5L577.9,658.6 L577.9,658.6z"></path> <path class="st0" d="M606.4,658.3L606.4,658.3c0-9.3,6.9-17.3,17-17.3s16.9,8,16.9,17.1c0,0,0,0,0,0.1c0,9.2-6.9,17.2-17,17.2 C613.2,675.5,606.4,667.5,606.4,658.3z M636.5,658.3L636.5,658.3c0-7.7-5.5-13.9-13.1-13.9s-13,6.1-13,13.7v0.1 c0,7.6,5.5,13.8,13.1,13.8C631.1,672,636.5,665.9,636.5,658.3z"></path> <path class="st0" d="M657.3,660.9v-19.4h3.8v19.1c0,7.2,3.8,11.2,10.2,11.2c6.1,0,10-3.7,10-11v-19.4h3.8v19.1 c0,9.7-5.6,14.8-13.9,14.8C663,675.4,657.3,670.4,657.3,660.9z"></path> <path class="st0" d="M703.5,641.6H716c7.5,0,12.5,4,12.5,10.6v0.1c0,7.2-6,10.9-13.1,10.9h-8.1V675h-3.8L703.5,641.6L703.5,641.6z M715.5,659.7c5.5,0,9.1-3,9.1-7.3v-0.1c0-4.8-3.6-7.2-9-7.2h-8.4v14.7h8.3V659.7z"></path> </g> </g> </svg> 